<svg width="50" height="49" viewBox="0 0 50 49" fill="none" xmlns="http://www.w3.org/2000/svg">
<path d="M25.0048 0.545573C25.9449 0.545573 26.707 1.30134 26.707 2.23363V4.48438C26.707 5.41666 25.9449 6.17243 25.0048 6.17243C24.0647 6.17243 23.3026 5.41666 23.3026 4.48438V2.23363C23.3026 1.30134 24.0647 0.545573 25.0048 0.545573Z" fill="white"/>
<path fill-rule="evenodd" clip-rule="evenodd" d="M11.9544 24.7411C11.9544 17.5935 17.7973 11.7993 25.0048 11.7993C32.2123 11.7993 38.0552 17.5935 38.0552 24.7411C38.0552 31.8886 32.2123 37.6828 25.0048 37.6828C17.7973 37.6828 11.9544 31.8886 11.9544 24.7411ZM25.0048 15.1754C19.6775 15.1754 15.3589 19.4581 15.3589 24.7411C15.3589 30.024 19.6775 34.3067 25.0048 34.3067C30.3321 34.3067 34.6507 30.024 34.6507 24.7411C34.6507 19.4581 30.3321 15.1754 25.0048 15.1754Z" fill="white"/>
<path d="M10.1598 7.63232C9.49501 6.97309 8.41722 6.97309 7.75246 7.63232C7.0877 8.29155 7.0877 9.36037 7.75246 10.0196L9.35733 11.6111C10.0221 12.2703 11.0999 12.2703 11.7646 11.6111C12.4294 10.9519 12.4294 9.88307 11.7646 9.22384L10.1598 7.63232Z" fill="white"/>
<path d="M49.4033 24.7411C49.4033 25.6734 48.6412 26.4291 47.7011 26.4291H45.4315C44.4914 26.4291 43.7293 25.6734 43.7293 24.7411C43.7293 23.8088 44.4914 23.053 45.4315 23.053H47.7011C48.6412 23.053 49.4033 23.8088 49.4033 24.7411Z" fill="white"/>
<path d="M42.2571 10.0196C42.9219 9.36035 42.9219 8.29153 42.2571 7.6323C41.5924 6.97307 40.5146 6.97307 39.8498 7.6323L38.2449 9.22382C37.5802 9.88305 37.5802 10.9519 38.2449 11.6111C38.9097 12.2703 39.9875 12.2703 40.6522 11.6111L42.2571 10.0196Z" fill="white"/>
<path d="M25.0048 43.3097C25.9449 43.3097 26.707 44.0655 26.707 44.9978V47.2485C26.707 48.1808 25.9449 48.9366 25.0048 48.9366C24.0647 48.9366 23.3026 48.1808 23.3026 47.2485V44.9978C23.3026 44.0655 24.0647 43.3097 25.0048 43.3097Z" fill="white"/>
<path d="M40.6524 37.8711C39.9876 37.2118 38.9099 37.2118 38.2451 37.8711C37.5803 38.5303 37.5803 39.5991 38.2451 40.2583L39.85 41.8498C40.5147 42.5091 41.5925 42.5091 42.2573 41.8498C42.922 41.1906 42.922 40.1218 42.2573 39.4626L40.6524 37.8711Z" fill="white"/>
<path d="M6.28034 24.7411C6.28034 25.6734 5.51823 26.4291 4.57812 26.4291H2.30849C1.36837 26.4291 0.606262 25.6734 0.606262 24.7411C0.606262 23.8088 1.36837 23.053 2.30849 23.053H4.57812C5.51823 23.053 6.28034 23.8088 6.28034 24.7411Z" fill="white"/>
<path d="M11.7645 40.2583C12.4292 39.5991 12.4292 38.5303 11.7645 37.871C11.0997 37.2118 10.0219 37.2118 9.35718 37.871L7.75231 39.4626C7.08755 40.1218 7.08755 41.1906 7.75231 41.8498C8.41707 42.5091 9.49486 42.5091 10.1596 41.8498L11.7645 40.2583Z" fill="white"/>
</svg>
